PathFileType	4	(X/Y/Z) abd_2kg_1.trc																										
DataRate	CameraRate	NumFrames	NumMarkers	Units	OrigDataRate	OrigDataStartFrame	OrigNumFrames																					
100	100	29	9	mm	100	208	829																					
Frame#	Time	gu			centelbow			EpL			centpxt8			centijc7			ij			ts			aa			ai		
		X1	Y1	Z1	X2	Y2	Z2	X3	Y3	Z3	X4	Y4	Z4	X5	Y5	Z5	X6	Y6	Z6	X7	Y7	Z7	X8	Y8	Z8	X9	Y9	Z9  
207	2.07	-91.735	41.879	140.531	-120.696	-25.831	376.244	-135.873	2.536	378.344	-46.816	-153.158	-8.669	-46.816	31.938	-8.669	0	0	0	-126.33	5.451	27.407	-128.694	60.851	133.001	-125.184	-92.525	84.722
208	2.08	-91.613	42.412	140.059	-120.016	-21.91	376.787	-135.18	6.489	378.518	-46.816	-153.158	-8.669	-46.816	31.938	-8.669	0	0	0	-126.54	5.088	27.808	-128.824	61.052	133.106	-125.36	-92.58	85.646
209	2.09	-91.422	43.535	139.518	-119.247	-17.311	377.231	-134.428	11.099	378.578	-46.816	-153.158	-8.669	-46.816	31.938	-8.669	0	0	0	-126.895	4.731	28.025	-129.104	61.261	133.022	-125.665	-92.624	86.387
210	2.1	-91.207	44.598	139.05	-118.428	-12.712	377.711	-133.612	15.712	378.672	-46.816	-153.158	-8.669	-46.816	31.938	-8.669	0	0	0	-127.121	4.458	27.968	-129.248	61.529	132.673	-125.771	-92.593	86.832
211	2.11	-90.927	45.055	138.826	-117.55	-8.745	378.37	-132.696	19.71	378.96	-46.816	-153.158	-8.669	-46.816	31.938	-8.669	0	0	0	-127.04	4.253	27.852	-129.09	61.828	132.283	-125.519	-92.511	87.182
212	2.12	-90.608	44.963	138.789	-116.676	-5.432	379.133	-131.758	23.062	379.369	-46.816	-153.158	-8.669	-46.816	31.938	-8.669	0	0	0	-126.804	4.133	27.846	-128.789	62.189	132.012	-125.126	-92.354	87.622
213	2.13	-90.471	44.81	138.682	-116.046	-2.241	379.756	-131.075	26.281	379.638	-46.816	-153.158	-8.669	-46.816	31.938	-8.669	0	0	0	-126.682	4.062	28.008	-128.619	62.589	131.91	-124.922	-92.151	88.22
214	2.14	-90.623	45.043	138.28	-115.777	1.44	380.045	-130.797	29.963	379.548	-46.816	-153.158	-8.669	-46.816	31.938	-8.669	0	0	0	-126.734	3.913	28.355	-128.658	62.906	131.993	-124.989	-92.03	88.997
215	2.15	-90.827	45.751	137.575	-115.66	5.79	380.002	-130.712	34.287	379.089	-46.816	-153.158	-8.669	-46.816	31.938	-8.669	0	0	0	-126.843	3.565	28.756	-128.785	63.038	132.12	-125.173	-92.097	89.844
216	2.16	-90.797	46.664	136.828	-115.433	10.421	379.858	-130.52	38.881	378.515	-46.816	-153.158	-8.669	-46.816	31.938	-8.669	0	0	0	-126.932	3.081	28.995	-128.892	63.074	132.057	-125.33	-92.273	90.564
217	2.17	-90.52	47.387	136.442	-115.104	14.774	379.992	-130.194	43.21	378.227	-46.816	-153.158	-8.669	-46.816	31.938	-8.669	0	0	0	-127.058	2.753	28.996	-129.024	63.307	131.73	-125.451	-92.264	91.084
218	2.18	-90.212	47.694	136.544	-114.844	18.618	380.537	-129.896	47.046	378.363	-46.816	-153.158	-8.669	-46.816	31.938	-8.669	0	0	0	-127.309	2.743	28.863	-129.271	63.879	131.252	-125.612	-91.918	91.489
219	2.19	-90.06	47.73	136.716	-114.67	22.161	381.103	-129.666	50.585	378.532	-46.816	-153.158	-8.669	-46.816	31.938	-8.669	0	0	0	-127.641	2.828	28.728	-129.569	64.541	130.77	-125.825	-91.476	91.887
220	2.2	-90.136	47.914	136.438	-114.505	25.818	381.187	-129.463	54.225	378.234	-46.816	-153.158	-8.669	-46.816	31.938	-8.669	0	0	0	-127.877	2.671	28.671	-129.731	64.939	130.377	-125.996	-91.287	92.342
221	2.21	-90.446	48.467	135.713	-114.402	29.874	380.794	-129.353	58.243	377.461	-46.816	-153.158	-8.669	-46.816	31.938	-8.669	0	0	0	-127.898	2.14	28.77	-129.663	64.962	130.136	-126.045	-91.471	92.951
222	2.22	-90.832	49.283	134.989	-114.331	34.376	380.367	-129.292	62.69	376.635	-46.816	-153.158	-8.669	-46.816	31.938	-8.669	0	0	0	-127.772	1.434	29.06	-129.472	64.845	130.06	-125.979	-91.804	93.782
223	2.23	-91.028	50.221	134.6	-114.045	39.167	380.226	-129.013	67.419	376.08	-46.816	-153.158	-8.669	-46.816	31.938	-8.669	0	0	0	-127.748	0.975	29.334	-129.406	64.989	129.953	-125.909	-91.874	94.613
224	2.24	-90.945	51.069	134.46	-113.388	43.79	380.281	-128.336	71.992	375.74	-46.816	-153.158	-8.669	-46.816	31.938	-8.669	0	0	0	-128.036	0.98	29.264	-129.648	65.563	129.52	-125.983	-91.494	95.068
225	2.25	-90.728	51.562	134.249	-112.499	47.846	380.209	-127.391	76.017	375.307	-46.816	-153.158	-8.669	-46.816	31.938	-8.669	0	0	0	-128.521	1.191	28.937	-130.084	66.301	128.852	-126.199	-90.929	95.226
226	2.26	-90.614	51.798	133.787	-111.741	51.545	379.831	-126.561	79.691	374.58	-46.816	-153.158	-8.669	-46.816	31.938	-8.669	0	0	0	-128.871	1.148	28.877	-130.426	66.776	128.453	-126.422	-90.624	95.642
227	2.27	-90.718	52.13	133.141	-111.359	55.421	379.205	-126.122	83.525	373.583	-46.816	-153.158	-8.669	-46.816	31.938	-8.669	0	0	0	-128.93	0.664	29.341	-130.528	66.817	128.568	-126.566	-90.755	96.592
228	2.28	-90.901	52.689	132.361	-111.169	59.682	378.379	-125.906	87.717	372.359	-46.816	-153.158	-8.669	-46.816	31.938	-8.669	0	0	0	-128.804	-0.055	30.003	-130.449	66.63	128.873	-126.63	-91.116	97.744
229	2.29	-91.028	53.364	131.456	-110.875	64.14	377.371	-125.604	92.091	370.947	-46.816	-153.158	-8.669	-46.816	31.938	-8.669	0	0	0	-128.73	-0.606	30.38	-130.389	66.608	128.891	-126.694	-91.305	98.609
230	2.3	-91.152	53.978	130.649	-110.488	68.465	376.414	-125.199	96.333	369.601	-46.816	-153.158	-8.669	-46.816	31.938	-8.669	0	0	0	-128.907	-0.697	30.255	-130.553	67.05	128.401	-126.856	-91.025	98.974
231	2.31	-91.311	54.277	130.237	-110.125	72.304	375.809	-124.787	100.105	368.629	-46.816	-153.158	-8.669	-46.816	31.938	-8.669	0	0	0	-129.254	-0.427	29.772	-130.881	67.856	127.545	-127.068	-90.374	98.984
232	2.32	-91.42	54.125	130.167	-109.756	75.526	375.504	-124.34	103.275	367.974	-46.816	-153.158	-8.669	-46.816	31.938	-8.669	0	0	0	-129.476	-0.222	29.371	-131.095	68.588	126.775	-127.174	-89.792	99.067
233	2.33	-91.433	53.804	130.039	-109.288	78.504	375.101	-123.802	106.195	367.228	-46.816	-153.158	-8.669	-46.816	31.938	-8.669	0	0	0	-129.478	-0.438	29.472	-131.113	68.877	126.516	-127.213	-89.645	99.633
234	2.34	-91.408	53.679	129.601	-108.724	81.777	374.336	-123.212	109.38	366.112	-46.816	-153.158	-8.669	-46.816	31.938	-8.669	0	0	0	-129.501	-1.053	29.996	-131.147	68.757	126.684	-127.41	-89.904	100.612
235	2.35	-91.39	53.764	129.025	-108.118	85.463	373.36	-122.63	112.94	364.766	-46.816	-153.158	-8.669	-46.816	31.938	-8.669	0	0	0	-129.659	-1.702	30.38	-131.264	68.603	126.709	-127.724	-90.194	101.45
